<?xml version="1.0" standalone="no"?>
<!DOCTYPE svg PUBLIC "-//W3C//DTD SVG 20010904//EN"
 "http://www.w3.org/TR/2001/REC-SVG-20010904/DTD/svg10.dtd">
<svg version="1.0" xmlns="http://www.w3.org/2000/svg"
 width="500.000000pt" height="500.000000pt" viewBox="0 0 500.000000 500.000000"
 preserveAspectRatio="xMidYMid meet">
<metadata>
Created by potrace 1.11, written by Peter Selinger 2001-2013
</metadata>
<g transform="translate(0.000000,500.000000) scale(0.100000,-0.100000)"
fill="#000000" stroke="none">
<path d="M2300 4425 c0 -24 -3 -25 -60 -25 l-60 0 0 -30 0 -30 -915 0 -915 0
0 -30 c0 -28 -3 -30 -35 -30 -31 0 -35 -3 -35 -25 0 -21 -5 -25 -30 -25 -27 0
-30 -3 -30 -30 0 -25 -4 -30 -25 -30 l-25 0 0 -1755 0 -1755 25 0 c21 0 25 -5
25 -30 0 -27 3 -30 30 -30 25 0 30 -4 30 -25 0 -22 4 -25 35 -25 32 0 35 -2
35 -30 l0 -30 2185 0 2185 0 0 30 c0 25 4 30 25 30 20 0 25 5 25 25 0 20 5 25
25 25 l25 0 0 1755 0 1755 -25 0 c-24 0 -25 3 -25 60 0 57 -1 60 -25 60 -20 0
-25 5 -25 25 0 22 -4 25 -35 25 -32 0 -35 2 -35 30 l0 30 -915 0 -915 0 0 30
0 30 -60 0 c-57 0 -60 1 -60 25 l0 25 -200 0 -200 0 0 -25z m-1670 -3215 l0
-90 -30 0 c-27 0 -30 -3 -30 -30 0 -25 -4 -30 -25 -30 -21 0 -25 5 -25 30 0
27 -3 30 -30 30 l-30 0 0 90 0 90 85 0 85 0 0 -90z m920 0 l0 -90 -30 0 c-27
0 -30 -3 -30 -30 0 -27 -3 -30 -30 -30 -27 0 -30 3 -30 30 0 30 -1 30 -55 30
l-55 0 0 90 0 90 115 0 115 0 0 -90z m970 60 c0 -27 3 -30 30 -30 l30 0 0 -60
0 -60 -30 0 c-27 0 -30 -3 -30 -30 l0 -30 -80 0 -80 0 0 120 0 120 80 0 80 0
0 -30z m990 0 c0 -27 3 -30 30 -30 27 0 30 -3 30 -30 0 -25 4 -30 25 -30 21 0
25 -5 25 -30 0 -25 -4 -30 -25 -30 -21 0 -25 -5 -25 -30 l0 -30 -90 0 -90 0 0
30 c0 27 -3 30 -30 30 -27 0 -30 3 -30 30 0 27 3 30 30 30 27 0 30 3 30 30 0
27 3 30 30 30 27 0 30 3 30 30 0 27 3 30 30 30 27 0 30 -3 30 -30z m1030 -120
l0 -90 -115 0 -115 0 0 90 0 90 115 0 115 0 0 -90z"/>
</g>
</svg>
